<?xml version="1.0" encoding="UTF-8" standalone="no"?>
<svg
   width="160"
   height="224"
   viewBox="0 0 160 224"
   version="1.1"
   id="svg5"
   xml:space="preserve"
   xmlns="http://www.w3.org/2000/svg"
   xmlns:svg="http://www.w3.org/2000/svg">
  <path
   id="path5616"
   style="fill:#ee4c2c"
   d="M 111.77365,21.999983 79.739739,76.93949 c 6.89125,11.84171 13.79436,23.6772 20.701251,35.51046 L 153.17882,21.999983 Z M 44.84946,136.77897 6.821,202.00029 H 48.2262 L 68.463729,167.29204 C 59.82525,157.74311 51.98138,147.48309 44.84946,136.77897 Z" />
  <path
   id="path5603"
   style="fill:#1a1a1a"
   d="m 24.055207,6.0120017 c -0.0578,-2.7e-5 -0.116029,2.57e-4 -0.173859,0.0013 -2.036668,0.03798 -4.098705,0.760218 -6.539182,2.317171 C 10.891995,12.4483 6.375281,19.057768 6.85607,23.675089 c 0.19691,1.889869 1.841388,4.785055 3.318766,5.842333 0.492699,0.352592 2.595166,1.615431 4.670844,2.807055 7.64015,4.387586 13.237062,10.376429 14.73092,15.763718 0.29064,1.046563 0.887579,4.359308 1.327779,7.359981 0.971338,6.623444 1.942977,9.676085 4.341914,13.658793 2.257357,3.747631 5.391497,6.954481 11.145287,11.401681 9.0639,7.00575 14.817089,13.43578 16.550759,16.41112 2.1976,3.76889 2.09827,7.24116 -0.43272,8.71345 -1.954579,1.13388 -5.609039,3.26084 -5.609039,3.26084 l 3.06939,6.86077 c 8.911809,19.92607 19.009909,37.13195 29.790839,50.75765 2.05644,2.59918 4.59583,5.61344 5.64271,6.69792 1.04685,1.08447 1.79781,2.03198 1.67017,2.10496 -0.37829,0.21516 -9.75835,-9.34416 -14.32922,-14.60249 -11.07842,-12.74498 -20.85273,-26.9363 -27.601699,-40.07274 -1.96653,-3.82818 -4.04535,-8.48118 -4.04535,-8.48118 l -6.24123,3.6159 c -2.6744,1.52683 -3.97602,1.96052 -2.12712,4.91732 11.19896,17.90936 18.24017,27.67487 28.321479,39.28389 7.67958,8.84336 21.68089,22.002 29.114081,27.65394 15.31825,11.6474 37.16484,25.94305 52.98452,30.35822 0.62892,-0.1759 -8.33706,-15.77785 -59.678661,-103.84848 C 50.80349,40.951705 33.288165,10.712429 31.618828,9.1980917 30.411229,8.1026337 29.083591,7.0125987 26.678424,6.3736807 l -0.003,-0.0013 c -0.888679,-0.236107 -1.752828,-0.36 -2.620227,-0.360378 z M 21.674631,19.154237 c 0.358679,-0.0053 0.694109,0.03402 1.004258,0.108132 3.134476,0.788758 3.712405,5.555702 0.2075,6.697913 -1.645418,0.536145 -3.219966,-0.08965 -4.120855,-1.635088 -1.322978,-2.26786 0.14438,-5.019277 2.753957,-5.165601 0.0522,-0.0026 0.10393,-0.0045 0.15496,-0.0053 z M 44.22803,58.081743 c 0.35074,-0.0155 0.70533,0.02305 1.04874,0.113424 0.85981,0.224201 1.65215,0.762848 2.15411,1.565711 0.95671,1.529548 0.36132,3.917178 -1.18084,4.735797 -1.24297,0.659554 -3.04872,0.571892 -4.04806,-0.197556 -1.80468,-1.389063 -1.61431,-4.344707 0.36548,-5.680792 0.50063,-0.338117 1.07595,-0.511843 1.66072,-0.536588 z" />
</svg>
