<?xml version="1.0" encoding="UTF-8" standalone="no"?>
<svg
   width="1280"
   height="280"
   viewBox="0 0 1280 280"
   version="1.1"
   id="svg5"
   xml:space="preserve"
   xmlns="http://www.w3.org/2000/svg"
   xmlns:svg="http://www.w3.org/2000/svg">
  <path
   id="path5616"
   style="fill:#ee4c2c"
   d="m 898.5946,49.999983 -32.03395,54.939507 c 6.89125,11.84171 13.79437,23.6772 20.70127,35.51046 l 52.7379,-90.449967 z m -66.92428,114.778987 -38.02851,65.22132 h 41.40525 l 20.23756,-34.70825 c -8.63849,-9.54893 -16.48237,-19.80895 -23.6143,-30.51307 z" />
  <path
   id="path5608"
   style="fill:#1a1a1a"
   d="m 684.82029,49.999983 a 90.892096,90.000498 0 0 0 -90.89175,90.000147 90.892096,90.000498 0 0 0 90.89175,90.00016 90.892096,90.000498 0 0 0 90.89314,-90.00016 90.892096,90.000498 0 0 0 -90.89314,-90.000147 z m 0,35.505114 a 55.035052,54.495192 0 0 1 55.03491,54.495033 55.035052,54.495192 0 0 1 -55.03491,54.49503 55.035052,54.495192 0 0 1 -55.03488,-54.49503 55.035052,54.495192 0 0 1 55.03488,-54.495033 z" />
  <path
   id="path5606"
   style="fill:#1a1a1a"
   d="M 411.71373,50.000214 V 230.00052 h 35.85816 v -118.5017 l 69.09456,118.5017 h 41.40526 V 50.000214 H 522.21484 V 168.50325 L 453.11895,50.000214 Z" />
  <path
   id="path5604"
   style="fill:#1a1a1a"
   d="M 340,50.000214 V 230.00052 h 35.85687 V 50.000214 Z" />
  <path
   id="path5603"
   style="fill:#1a1a1a"
   d="m 810.87604,34.012002 c -0.0578,-2.7e-5 -0.11603,2.57e-4 -0.17386,0.0013 -2.03667,0.03798 -4.09871,0.760218 -6.53919,2.317171 -6.45018,4.117827 -10.9669,10.727295 -10.48611,15.344616 0.19691,1.889869 1.84139,4.785055 3.31877,5.842333 0.4927,0.352592 2.59517,1.615431 4.67085,2.807055 7.64016,4.387586 13.23708,10.376429 14.73094,15.763718 0.29064,1.046563 0.88758,4.359308 1.32778,7.359981 0.97134,6.623444 1.94298,9.676085 4.34192,13.658793 2.25736,3.747631 5.3915,6.954481 11.1453,11.401681 9.06391,7.00575 14.81711,13.43578 16.55078,16.41112 2.19761,3.76889 2.09828,7.24116 -0.43272,8.71345 -1.95458,1.13388 -5.60904,3.26084 -5.60904,3.26084 l 3.06939,6.86077 c 8.91182,19.92607 19.00993,37.13195 29.79088,50.75765 2.05644,2.59918 4.59583,5.61344 5.64272,6.69792 1.04685,1.08447 1.79781,2.03198 1.67017,2.10496 -0.37829,0.21516 -9.75836,-9.34416 -14.32924,-14.60249 -11.07844,-12.74498 -20.85276,-26.9363 -27.60174,-40.07274 -1.96653,-3.82818 -4.04535,-8.48118 -4.04535,-8.48118 l -6.24124,3.6159 c -2.6744,1.52683 -3.97603,1.96052 -2.12712,4.91732 11.19897,17.90936 18.24019,27.67487 28.32151,39.28389 7.67959,8.84336 21.68092,22.002 29.11412,27.65394 15.31827,11.6474 37.16489,25.94305 52.98459,30.35822 0.62892,-0.1759 -8.33707,-15.77785 -59.67874,-103.84848 -42.66705,-73.188035 -60.1824,-103.427311 -61.85174,-104.941648 -1.2076,-1.095458 -2.53524,-2.185493 -4.94041,-2.824411 l -0.003,-0.0013 c -0.88868,-0.236107 -1.75283,-0.36 -2.62023,-0.360378 z m -2.38058,13.142235 c 0.35868,-0.0053 0.69411,0.03402 1.00426,0.108132 3.13448,0.788758 3.71241,5.555702 0.2075,6.697913 -1.64542,0.536145 -3.21997,-0.08965 -4.12086,-1.635088 -1.32298,-2.26786 0.14438,-5.019277 2.75396,-5.165601 0.0522,-0.0026 0.10393,-0.0045 0.15496,-0.0053 z m 22.55343,38.927506 c 0.35074,-0.0155 0.70533,0.02305 1.04874,0.113424 0.85981,0.224201 1.65215,0.762848 2.15411,1.565711 0.95671,1.529548 0.36132,3.917178 -1.18084,4.735797 -1.24297,0.659554 -3.04872,0.571892 -4.04806,-0.197556 -1.80469,-1.389063 -1.61432,-4.344707 0.36548,-5.680792 0.50063,-0.338117 1.07595,-0.511843 1.66072,-0.536588 z" />
</svg>
